<mxfile host="Electron" agent="Mozilla/5.0 (Windows NT 10.0; Win64; x64) AppleWebKit/537.36 (KHTML, like Gecko) draw.io/28.1.2 Chrome/138.0.7204.243 Electron/37.4.0 Safari/537.36" version="28.1.2">
  <diagram name="Page-1" id="OdJDzr9ZJD8vTSJeCx2S">
    <mxGraphModel dx="1446" dy="719" grid="0" gridSize="10" guides="1" tooltips="1" connect="1" arrows="1" fold="1" page="1" pageScale="1" pageWidth="850" pageHeight="1100" math="0" shadow="0">
      <root>
        <mxCell id="0" />
        <mxCell id="1" parent="0" />
        <mxCell id="8VNh76Spja4uSYEV2eKS-1" value="&lt;p style=&quot;margin:0px;margin-top:4px;text-align:center;&quot;&gt;Customer&lt;/p&gt;&lt;hr size=&quot;1&quot; style=&quot;border-style:solid;&quot;&gt;&lt;p style=&quot;margin:0px;margin-left:4px;&quot;&gt;- id: String&lt;/p&gt;&lt;p style=&quot;margin:0px;margin-left:4px;&quot;&gt;- name: String&lt;/p&gt;&lt;p style=&quot;margin:0px;margin-left:4px;&quot;&gt;- phone: String&lt;/p&gt;&lt;hr size=&quot;1&quot; style=&quot;border-style:solid;&quot;&gt;&lt;p style=&quot;margin:0px;margin-left:4px;&quot;&gt;+ Customer(id, name, phone)&lt;/p&gt;&lt;p style=&quot;margin:0px;margin-left:4px;&quot;&gt;+ Customer(id, name)&lt;/p&gt;&lt;p style=&quot;margin:0px;margin-left:4px;&quot;&gt;+ getId(): String&amp;nbsp;&lt;/p&gt;&lt;p style=&quot;margin:0px;margin-left:4px;&quot;&gt;+ getName(): String&lt;/p&gt;&lt;p style=&quot;margin:0px;margin-left:4px;&quot;&gt;+ getPhone(): String&lt;/p&gt;&lt;p style=&quot;margin:0px;margin-left:4px;&quot;&gt;+ setName(name: String): void&lt;/p&gt;&lt;p style=&quot;margin:0px;margin-left:4px;&quot;&gt;+ setPhone(phone: String): void&lt;/p&gt;&lt;p style=&quot;margin:0px;margin-left:4px;&quot;&gt;+ toString(): String&lt;/p&gt;" style="verticalAlign=top;align=left;overflow=fill;html=1;whiteSpace=wrap;" vertex="1" parent="1">
          <mxGeometry x="52" y="68" width="190" height="212" as="geometry" />
        </mxCell>
        <mxCell id="8VNh76Spja4uSYEV2eKS-2" value="&lt;p style=&quot;margin:0px;margin-top:4px;text-align:center;&quot;&gt;&lt;i&gt;&amp;lt;&amp;lt;abstract&amp;gt;&amp;gt;&lt;/i&gt;&lt;br&gt;Account&lt;/p&gt;&lt;hr size=&quot;1&quot; style=&quot;border-style:solid;&quot;&gt;&lt;p style=&quot;margin:0px;margin-left:4px;&quot;&gt;# accountNumber: String&lt;br&gt;# balance: double&lt;/p&gt;&lt;p style=&quot;margin:0px;margin-left:4px;&quot;&gt;# owner: Customer&lt;/p&gt;&lt;hr size=&quot;1&quot; style=&quot;border-style:solid;&quot;&gt;&lt;p style=&quot;margin:0px;margin-left:4px;&quot;&gt;+ Account(accountNumber: String,&amp;nbsp;&lt;span style=&quot;background-color: transparent; color: light-dark(rgb(0, 0, 0), rgb(255, 255, 255));&quot;&gt;owner: Customer,&amp;nbsp;&lt;/span&gt;&lt;span style=&quot;background-color: transparent; color: light-dark(rgb(0, 0, 0), rgb(255, 255, 255));&quot;&gt;initialBalance: double)&lt;/span&gt;&lt;/p&gt;&lt;p style=&quot;margin:0px;margin-left:4px;&quot;&gt;+ getAccountNumber(): String&lt;/p&gt;&lt;p style=&quot;margin:0px;margin-left:4px;&quot;&gt;+ getBalance(): double&lt;/p&gt;&lt;p style=&quot;margin:0px;margin-left:4px;&quot;&gt;+ getOwner(): Customer&lt;/p&gt;&lt;p style=&quot;margin:0px;margin-left:4px;&quot;&gt;+ deposit(amount: double): void&lt;/p&gt;&lt;p style=&quot;margin:0px;margin-left:4px;&quot;&gt;+ withdraw(amount: double): void*&lt;/p&gt;&lt;p style=&quot;margin:0px;margin-left:4px;&quot;&gt;+ endOfMonthUpdate(): void*&lt;/p&gt;&lt;p style=&quot;margin:0px;margin-left:4px;&quot;&gt;+ toString(): String&amp;nbsp; &amp;nbsp;&amp;nbsp;&lt;/p&gt;" style="verticalAlign=top;align=left;overflow=fill;html=1;whiteSpace=wrap;" vertex="1" parent="1">
          <mxGeometry x="289" y="260" width="228" height="243" as="geometry" />
        </mxCell>
        <mxCell id="8VNh76Spja4uSYEV2eKS-3" value="&lt;p style=&quot;margin:0px;margin-top:4px;text-align:center;&quot;&gt;RegularAccount&lt;/p&gt;&lt;hr size=&quot;1&quot; style=&quot;border-style:solid;&quot;&gt;&lt;p style=&quot;margin:0px;margin-left:4px;&quot;&gt;- INTEREST: double = 0.06&lt;/p&gt;&lt;p style=&quot;margin:0px;margin-left:4px;&quot;&gt;- MAINT_FEE: double = 10.0&lt;/p&gt;&lt;hr size=&quot;1&quot; style=&quot;border-style:solid;&quot;&gt;&lt;p style=&quot;margin:0px;margin-left:4px;&quot;&gt;+ withdraw(amount: double): void&lt;/p&gt;&lt;p style=&quot;margin:0px;margin-left:4px;&quot;&gt;+ endOfMonthUpdate(): void&lt;/p&gt;&lt;p style=&quot;margin:0px;margin-left:4px;&quot;&gt;+ toString(): String&lt;/p&gt;" style="verticalAlign=top;align=left;overflow=fill;html=1;whiteSpace=wrap;" vertex="1" parent="1">
          <mxGeometry x="555" y="580" width="190" height="121" as="geometry" />
        </mxCell>
        <mxCell id="8VNh76Spja4uSYEV2eKS-4" value="&lt;p style=&quot;margin:0px;margin-top:4px;text-align:center;&quot;&gt;GoldAccount&lt;/p&gt;&lt;hr size=&quot;1&quot; style=&quot;border-style:solid;&quot;&gt;&lt;p style=&quot;margin:0px;margin-left:4px;&quot;&gt;- INTEREST: double = 0.05&lt;/p&gt;&lt;hr size=&quot;1&quot; style=&quot;border-style:solid;&quot;&gt;&lt;p style=&quot;margin:0px;margin-left:4px;&quot;&gt;+ withdraw(amount: double): void&lt;/p&gt;&lt;p style=&quot;margin:0px;margin-left:4px;&quot;&gt;+ endOfMonthUpdate(): void&lt;/p&gt;&lt;p style=&quot;margin:0px;margin-left:4px;&quot;&gt;+ toString(): String&lt;/p&gt;" style="verticalAlign=top;align=left;overflow=fill;html=1;whiteSpace=wrap;" vertex="1" parent="1">
          <mxGeometry x="300" y="580" width="190" height="107" as="geometry" />
        </mxCell>
        <mxCell id="8VNh76Spja4uSYEV2eKS-5" value="&lt;p style=&quot;margin:0px;margin-top:4px;text-align:center;&quot;&gt;CheckingAccount&lt;/p&gt;&lt;hr size=&quot;1&quot; style=&quot;border-style:solid;&quot;&gt;&lt;p style=&quot;margin:0px;margin-left:4px;&quot;&gt;- FREE_TXN_PER_MONTH: int = 2&lt;/p&gt;&lt;p style=&quot;margin:0px;margin-left:4px;&quot;&gt;- EXTRA_TXN_FEE: double = 3.0&lt;/p&gt;&lt;p style=&quot;margin:0px;margin-left:4px;&quot;&gt;- monthlyTxnCount: int&lt;/p&gt;&lt;hr size=&quot;1&quot; style=&quot;border-style:solid;&quot;&gt;&lt;p style=&quot;margin:0px;margin-left:4px;&quot;&gt;+ deposit(amount: double): void&lt;/p&gt;&lt;p style=&quot;margin:0px;margin-left:4px;&quot;&gt;+ withdraw(amount: double): void&lt;/p&gt;&lt;p style=&quot;margin:0px;margin-left:4px;&quot;&gt;+ endOfMonthUpdate(): void&lt;/p&gt;&lt;p style=&quot;margin:0px;margin-left:4px;&quot;&gt;+ toString(): String&lt;/p&gt;" style="verticalAlign=top;align=left;overflow=fill;html=1;whiteSpace=wrap;" vertex="1" parent="1">
          <mxGeometry x="37" y="580" width="208" height="150" as="geometry" />
        </mxCell>
        <mxCell id="8VNh76Spja4uSYEV2eKS-6" value="&lt;p style=&quot;margin:0px;margin-top:4px;text-align:center;&quot;&gt;BankSystemTest&lt;/p&gt;&lt;hr size=&quot;1&quot; style=&quot;border-style:solid;&quot;&gt;&lt;p style=&quot;margin:0px;margin-left:4px;&quot;&gt;- accounts: ArrayList&amp;lt;Account&amp;gt;&lt;br&gt;- sc: Scanner&amp;nbsp; &amp;nbsp;&lt;/p&gt;&lt;hr size=&quot;1&quot; style=&quot;border-style:solid;&quot;&gt;&lt;p style=&quot;margin:0px;margin-left:4px;&quot;&gt;+ main(args: String[]): void&lt;/p&gt;&lt;p style=&quot;margin:0px;margin-left:4px;&quot;&gt;- createAccount(type: String): void&lt;/p&gt;&lt;p style=&quot;margin:0px;margin-left:4px;&quot;&gt;- deposit(): void&lt;/p&gt;&lt;p style=&quot;margin:0px;margin-left:4px;&quot;&gt;- withdraw(): void&lt;/p&gt;&lt;p style=&quot;margin:0px;margin-left:4px;&quot;&gt;- displayAccount(): void&lt;/p&gt;&lt;p style=&quot;margin:0px;margin-left:4px;&quot;&gt;- removeAccount(): void&lt;/p&gt;&lt;p style=&quot;margin:0px;margin-left:4px;&quot;&gt;- endOfMonthUpdates(): void&lt;/p&gt;&lt;p style=&quot;margin:0px;margin-left:4px;&quot;&gt;- displayBankStats(): void&lt;/p&gt;&lt;p style=&quot;margin:0px;margin-left:4px;&quot;&gt;- findAccount(accountNumber: String): Account&lt;/p&gt;" style="verticalAlign=top;align=left;overflow=fill;html=1;whiteSpace=wrap;" vertex="1" parent="1">
          <mxGeometry x="578" y="68" width="190" height="229" as="geometry" />
        </mxCell>
        <mxCell id="8VNh76Spja4uSYEV2eKS-9" value="" style="triangle;whiteSpace=wrap;html=1;rotation=-45;" vertex="1" parent="1">
          <mxGeometry x="313" y="497" width="26" height="32" as="geometry" />
        </mxCell>
        <mxCell id="8VNh76Spja4uSYEV2eKS-10" value="" style="triangle;whiteSpace=wrap;html=1;rotation=-90;" vertex="1" parent="1">
          <mxGeometry x="387" y="500" width="26" height="32" as="geometry" />
        </mxCell>
        <mxCell id="8VNh76Spja4uSYEV2eKS-11" value="" style="triangle;whiteSpace=wrap;html=1;rotation=-130;" vertex="1" parent="1">
          <mxGeometry x="467" y="497" width="26" height="32" as="geometry" />
        </mxCell>
        <mxCell id="8VNh76Spja4uSYEV2eKS-12" value="" style="endArrow=none;html=1;rounded=0;exitX=0.5;exitY=0;exitDx=0;exitDy=0;entryX=0;entryY=0.5;entryDx=0;entryDy=0;" edge="1" parent="1" source="8VNh76Spja4uSYEV2eKS-5" target="8VNh76Spja4uSYEV2eKS-9">
          <mxGeometry width="50" height="50" relative="1" as="geometry">
            <mxPoint x="162" y="550" as="sourcePoint" />
            <mxPoint x="212" y="500" as="targetPoint" />
          </mxGeometry>
        </mxCell>
        <mxCell id="8VNh76Spja4uSYEV2eKS-13" value="" style="endArrow=none;html=1;rounded=0;exitX=0.5;exitY=0;exitDx=0;exitDy=0;entryX=0;entryY=0.5;entryDx=0;entryDy=0;" edge="1" parent="1" source="8VNh76Spja4uSYEV2eKS-4" target="8VNh76Spja4uSYEV2eKS-10">
          <mxGeometry width="50" height="50" relative="1" as="geometry">
            <mxPoint x="162" y="550" as="sourcePoint" />
            <mxPoint x="212" y="500" as="targetPoint" />
          </mxGeometry>
        </mxCell>
        <mxCell id="8VNh76Spja4uSYEV2eKS-14" value="" style="endArrow=none;html=1;rounded=0;exitX=0.5;exitY=0;exitDx=0;exitDy=0;entryX=0;entryY=0.5;entryDx=0;entryDy=0;" edge="1" parent="1" source="8VNh76Spja4uSYEV2eKS-3" target="8VNh76Spja4uSYEV2eKS-11">
          <mxGeometry width="50" height="50" relative="1" as="geometry">
            <mxPoint x="162" y="550" as="sourcePoint" />
            <mxPoint x="212" y="500" as="targetPoint" />
          </mxGeometry>
        </mxCell>
        <mxCell id="8VNh76Spja4uSYEV2eKS-16" value="" style="rhombus;whiteSpace=wrap;html=1;" vertex="1" parent="1">
          <mxGeometry x="242" y="187" width="28" height="27" as="geometry" />
        </mxCell>
        <mxCell id="8VNh76Spja4uSYEV2eKS-17" value="" style="endArrow=classic;html=1;rounded=0;exitX=1;exitY=0.5;exitDx=0;exitDy=0;entryX=0.5;entryY=0;entryDx=0;entryDy=0;" edge="1" parent="1" source="8VNh76Spja4uSYEV2eKS-16" target="8VNh76Spja4uSYEV2eKS-2">
          <mxGeometry width="50" height="50" relative="1" as="geometry">
            <mxPoint x="314" y="269" as="sourcePoint" />
            <mxPoint x="364" y="219" as="targetPoint" />
          </mxGeometry>
        </mxCell>
        <mxCell id="8VNh76Spja4uSYEV2eKS-19" value="" style="triangle;whiteSpace=wrap;html=1;rotation=120;" vertex="1" parent="1">
          <mxGeometry x="471" y="231" width="28" height="33" as="geometry" />
        </mxCell>
        <mxCell id="8VNh76Spja4uSYEV2eKS-20" value="" style="triangle;whiteSpace=wrap;html=1;rotation=-180;" vertex="1" parent="1">
          <mxGeometry x="241.99941916244322" y="137.00435565298213" width="28" height="33" as="geometry" />
        </mxCell>
        <mxCell id="8VNh76Spja4uSYEV2eKS-21" value="" style="endArrow=none;dashed=1;html=1;rounded=0;exitX=0;exitY=0.5;exitDx=0;exitDy=0;entryX=0;entryY=0.5;entryDx=0;entryDy=0;" edge="1" parent="1" source="8VNh76Spja4uSYEV2eKS-20" target="8VNh76Spja4uSYEV2eKS-6">
          <mxGeometry width="50" height="50" relative="1" as="geometry">
            <mxPoint x="314" y="269" as="sourcePoint" />
            <mxPoint x="364" y="219" as="targetPoint" />
          </mxGeometry>
        </mxCell>
        <mxCell id="8VNh76Spja4uSYEV2eKS-22" value="" style="endArrow=none;dashed=1;html=1;rounded=0;exitX=0;exitY=0.5;exitDx=0;exitDy=0;entryX=0;entryY=0.5;entryDx=0;entryDy=0;" edge="1" parent="1" source="8VNh76Spja4uSYEV2eKS-19" target="8VNh76Spja4uSYEV2eKS-6">
          <mxGeometry width="50" height="50" relative="1" as="geometry">
            <mxPoint x="314" y="269" as="sourcePoint" />
            <mxPoint x="364" y="219" as="targetPoint" />
          </mxGeometry>
        </mxCell>
        <mxCell id="8VNh76Spja4uSYEV2eKS-23" value="1" style="text;html=1;align=center;verticalAlign=middle;whiteSpace=wrap;rounded=0;" vertex="1" parent="1">
          <mxGeometry x="242" y="201" width="60" height="30" as="geometry" />
        </mxCell>
        <mxCell id="8VNh76Spja4uSYEV2eKS-24" value="0..*" style="text;html=1;align=center;verticalAlign=middle;whiteSpace=wrap;rounded=0;" vertex="1" parent="1">
          <mxGeometry x="320" y="232.5" width="60" height="30" as="geometry" />
        </mxCell>
      </root>
    </mxGraphModel>
  </diagram>
</mxfile>
